
<svg width="48px" height="32px" viewBox="0 0 48 32" version="1.1" xmlns="http://www.w3.org/2000/svg" xmlns:xlink="http://www.w3.org/1999/xlink">
    <g id="Page-1" stroke="none" stroke-width="1" fill="none" fill-rule="evenodd">
        <g id="captions-on" fill-rule="nonzero">
            <polygon id="Path" fill="#FFFFFF" points="1.77 30 46.23 30 46.23 2 1.77 2"></polygon>
            <path d="M22.86,11.39 L20.86,13.34 C19.6830922,11.9685697 17.9768586,11.1645663 16.17,11.13 C14.7824762,11.1109715 13.4462076,11.6537681 12.4649879,12.6349879 C11.4837681,13.6162076 10.9409715,14.9524762 10.96,16.34 C10.9426299,17.2927245 11.1735322,18.2335654 11.63,19.07 C12.0704772,19.859527 12.7258319,20.5079467 13.52,20.94 C14.3494053,21.3970125 15.2830861,21.631294 16.23,21.62 C17.0313506,21.6318661 17.825913,21.4715895 18.56,21.15 C19.42781,20.712242 20.2128474,20.1268477 20.88,19.42 L22.88,21.49 C21.9565782,22.447393 20.8651302,23.2269988 19.66,23.79 C18.5616684,24.2346217 17.3847035,24.4523262 16.2,24.43 C14.0188032,24.5043372 11.9019228,23.684317 10.34,22.16 C8.78613064,20.6287952 7.93853375,18.5206696 8,16.34 C7.96394246,14.9152026 8.30917822,13.5066407 9,12.26 C9.71876714,11.0470211 10.7563897,10.0543623 12,9.39 C13.2711902,8.66930618 14.7087394,8.29354392 16.17,8.3 C18.7412804,8.30726363 21.1825769,9.43120879 22.86,11.38 L22.86,11.39 Z" id="Shape" fill="#000000"></path>
            <path d="M39.53,11.39 L37.53,13.34 C36.3530922,11.9685697 34.6468586,11.1645663 32.84,11.13 C31.4524762,11.1109715 30.1162076,11.6537681 29.1349879,12.6349879 C28.1537681,13.6162076 27.6109715,14.9524762 27.63,16.34 C27.6126299,17.2927245 27.8435322,18.2335654 28.3,19.07 C28.7404772,19.859527 29.3958319,20.5079467 30.19,20.94 C31.0194053,21.3970125 31.9530861,21.631294 32.9,21.62 C33.7013506,21.6318661 34.495913,21.4715895 35.23,21.15 C36.09781,20.712242 36.8828474,20.1268477 37.55,19.42 L39.55,21.49 C38.6265782,22.447393 37.5351302,23.2269988 36.33,23.79 C35.2316684,24.2346217 34.0547035,24.4523262 32.87,24.43 C30.6888032,24.5043372 28.5719228,23.684317 27.01,22.16 C25.4781178,20.6186063 24.6527598,18.5117716 24.73,16.34 C24.6939425,14.9152026 25.0391782,13.5066407 25.73,12.26 C26.4487671,11.0470211 27.4863897,10.0543623 28.73,9.39 C29.9835031,8.67935404 31.3990724,8.30393541 32.84,8.3 C35.4112804,8.30726363 37.8525769,9.43120879 39.53,11.38 L39.53,11.39 Z" id="Shape" fill="#000000"></path>
            <path d="M47.74,31.53 L0.26,31.53 L0.26,0.47 L47.74,0.47 L47.74,31.53 Z M1.77,30 L46.23,30 L46.23,2 L1.77,2 L1.77,30 Z" id="Shape" fill="#858585"></path>
        </g>
    </g>
</svg>
