<svg id="Layer_1" data-name="Layer 1" xmlns="http://www.w3.org/2000/svg" viewBox="0 0 48 32"><defs><style>.cls-1{fill:#fff;}</style></defs><title>cc</title><path class="cls-1" d="M22.86,11.39l-2,1.95a6.34,6.34,0,0,0-4.69-2.21,5.14,5.14,0,0,0-5.21,5.21,5.49,5.49,0,0,0,.67,2.73,4.78,4.78,0,0,0,1.89,1.87,5.48,5.48,0,0,0,2.71.68,5.6,5.6,0,0,0,2.33-.47,8.38,8.38,0,0,0,2.32-1.73l2,2.07a10.86,10.86,0,0,1-3.22,2.3,8.78,8.78,0,0,1-3.46.64,8,8,0,0,1-5.86-2.27A7.86,7.86,0,0,1,8,16.34a8,8,0,0,1,1-4.08,7.71,7.71,0,0,1,3-2.87A8.38,8.38,0,0,1,16.17,8.3a8.86,8.86,0,0,1,6.69,3.08Z"/><path class="cls-1" d="M39.53,11.39l-2,1.95a6.34,6.34,0,0,0-4.69-2.21,5.14,5.14,0,0,0-5.21,5.21,5.49,5.49,0,0,0,.67,2.73,4.78,4.78,0,0,0,1.89,1.87,5.48,5.48,0,0,0,2.71.68,5.6,5.6,0,0,0,2.33-.47,8.38,8.38,0,0,0,2.32-1.73l2,2.07a10.86,10.86,0,0,1-3.22,2.3,8.78,8.78,0,0,1-3.46.64,8,8,0,0,1-5.86-2.27,7.86,7.86,0,0,1-2.28-5.82,8,8,0,0,1,1-4.08,7.71,7.71,0,0,1,3-2.87A8.38,8.38,0,0,1,32.84,8.3a8.86,8.86,0,0,1,6.69,3.08Z"/><path class="cls-1" d="M47.74,31.53H.26V.47H47.74ZM1.77,30H46.23V2H1.77Z"/></svg>
